<svg width="55" height="49" viewBox="0 0 55 49" fill="none" xmlns="http://www.w3.org/2000/svg">
<g filter="url(#filter0_d_8_2)">
<path d="M11.7258 3.83968C12.2629 1.58841 14.2749 0 16.5893 0H27.801C31.0668 0 33.456 3.07988 32.644 6.24318L24.74 37.0343C24.0332 39.7877 21.1761 41.3987 18.4543 40.5785L8.51519 37.5833C5.97992 36.8193 4.47988 34.2112 5.09435 31.6356L11.7258 3.83968Z" fill="#304CAE"/>
</g>
<g filter="url(#filter1_d_8_2)">
<path d="M32.3013 9.10679C32.8358 6.85222 34.8494 5.26028 37.1664 5.26028H45.5643C48.8271 5.26028 51.2157 8.3347 50.4092 11.4962L43.899 37.0161C43.1948 39.7767 40.3297 41.3917 37.6032 40.565L30.1973 38.3193C27.6691 37.5526 26.1737 34.9515 26.7831 32.3809L32.3013 9.10679Z" fill="#304CAE"/>
</g>
<defs>
<filter id="filter0_d_8_2" x="0.956909" y="0" width="35.8466" height="48.7927" filterUnits="userSpaceOnUse" color-interpolation-filters="sRGB">
<feFlood flood-opacity="0" result="BackgroundImageFix"/>
<feColorMatrix in="SourceAlpha" type="matrix" values="0 0 0 0 0 0 0 0 0 0 0 0 0 0 0 0 0 0 127 0" result="hardAlpha"/>
<feOffset dy="4"/>
<feGaussianBlur stdDeviation="2"/>
<feComposite in2="hardAlpha" operator="out"/>
<feColorMatrix type="matrix" values="0 0 0 0 0 0 0 0 0 0 0 0 0 0 0 0 0 0 0.25 0"/>
<feBlend mode="normal" in2="BackgroundImageFix" result="effect1_dropShadow_8_2"/>
<feBlend mode="normal" in="SourceGraphic" in2="effect1_dropShadow_8_2" result="shape"/>
</filter>
<filter id="filter1_d_8_2" x="22.6473" y="5.26028" width="31.9196" height="43.5214" filterUnits="userSpaceOnUse" color-interpolation-filters="sRGB">
<feFlood flood-opacity="0" result="BackgroundImageFix"/>
<feColorMatrix in="SourceAlpha" type="matrix" values="0 0 0 0 0 0 0 0 0 0 0 0 0 0 0 0 0 0 127 0" result="hardAlpha"/>
<feOffset dy="4"/>
<feGaussianBlur stdDeviation="2"/>
<feComposite in2="hardAlpha" operator="out"/>
<feColorMatrix type="matrix" values="0 0 0 0 0 0 0 0 0 0 0 0 0 0 0 0 0 0 0.25 0"/>
<feBlend mode="normal" in2="BackgroundImageFix" result="effect1_dropShadow_8_2"/>
<feBlend mode="normal" in="SourceGraphic" in2="effect1_dropShadow_8_2" result="shape"/>
</filter>
</defs>
</svg>
