<svg width="182" height="49" viewBox="0 0 182 49" fill="none" xmlns="http://www.w3.org/2000/svg">
<g filter="url(#filter0_d_6_7)">
<path d="M11.7258 3.83968C12.2629 1.58841 14.2749 0 16.5893 0H27.801C31.0668 0 33.456 3.07988 32.644 6.24318L24.74 37.0343C24.0332 39.7877 21.1761 41.3987 18.4543 40.5785L8.51518 37.5833C5.97992 36.8193 4.47988 34.2112 5.09435 31.6356L11.7258 3.83968Z" fill="#304CAE"/>
</g>
<g filter="url(#filter1_d_6_7)">
<path d="M32.3013 9.10679C32.8359 6.85222 34.8494 5.26028 37.1665 5.26028H45.5644C48.8271 5.26028 51.2157 8.3347 50.4092 11.4962L43.899 37.0161C43.1948 39.7767 40.3297 41.3917 37.6033 40.565L30.1973 38.3193C27.6692 37.5526 26.1737 34.9515 26.7832 32.3809L32.3013 9.10679Z" fill="#304CAE"/>
</g>
<path d="M59.14 32.3C58 32.3 56.94 32.07 55.96 31.61C54.98 31.15 54.18 30.49 53.56 29.63C53.32 29.27 53.2 28.92 53.2 28.58C53.2 28.08 53.39 27.66 53.77 27.32C54.17 26.98 54.56 26.81 54.94 26.81C55.24 26.81 55.53 26.9 55.81 27.08C56.11 27.26 56.38 27.47 56.62 27.71C57.02 28.07 57.41 28.33 57.79 28.49C58.19 28.63 58.64 28.7 59.14 28.7C59.74 28.7 60.3 28.55 60.82 28.25C61.34 27.95 61.76 27.55 62.08 27.05C62.4 26.55 62.56 26.01 62.56 25.43V12.83C62.56 12.31 62.75 11.88 63.13 11.54C63.51 11.18 63.95 11 64.45 11C65.01 11 65.46 11.18 65.8 11.54C66.14 11.88 66.31 12.31 66.31 12.83V25.43C66.31 26.65 65.99 27.78 65.35 28.82C64.71 29.86 63.85 30.7 62.77 31.34C61.69 31.98 60.48 32.3 59.14 32.3ZM85.1427 15.65C85.6627 15.65 86.0927 15.82 86.4327 16.16C86.7727 16.5 86.9427 16.94 86.9427 17.48V30.17C86.9427 30.69 86.7727 31.13 86.4327 31.49C86.0927 31.83 85.6627 32 85.1427 32C84.6227 32 84.1927 31.83 83.8527 31.49C83.5127 31.13 83.3427 30.69 83.3427 30.17V28.7L84.0027 28.97C84.0027 29.23 83.8627 29.55 83.5827 29.93C83.3027 30.29 82.9227 30.65 82.4427 31.01C81.9627 31.37 81.3927 31.68 80.7327 31.94C80.0927 32.18 79.3927 32.3 78.6327 32.3C77.2527 32.3 76.0027 31.95 74.8827 31.25C73.7627 30.53 72.8727 29.55 72.2127 28.31C71.5727 27.05 71.2527 25.61 71.2527 23.99C71.2527 22.35 71.5727 20.91 72.2127 19.67C72.8727 18.41 73.7527 17.43 74.8527 16.73C75.9527 16.01 77.1727 15.65 78.5127 15.65C79.3727 15.65 80.1627 15.78 80.8827 16.04C81.6027 16.3 82.2227 16.63 82.7427 17.03C83.2827 17.43 83.6927 17.84 83.9727 18.26C84.2727 18.66 84.4227 19 84.4227 19.28L83.3427 19.67V17.48C83.3427 16.96 83.5127 16.53 83.8527 16.19C84.1927 15.83 84.6227 15.65 85.1427 15.65ZM79.0827 29C79.9627 29 80.7327 28.78 81.3927 28.34C82.0527 27.9 82.5627 27.3 82.9227 26.54C83.3027 25.78 83.4927 24.93 83.4927 23.99C83.4927 23.03 83.3027 22.17 82.9227 21.41C82.5627 20.65 82.0527 20.05 81.3927 19.61C80.7327 19.17 79.9627 18.95 79.0827 18.95C78.2227 18.95 77.4627 19.17 76.8027 19.61C76.1427 20.05 75.6227 20.65 75.2427 21.41C74.8827 22.17 74.7027 23.03 74.7027 23.99C74.7027 24.93 74.8827 25.78 75.2427 26.54C75.6227 27.3 76.1427 27.9 76.8027 28.34C77.4627 28.78 78.2227 29 79.0827 29ZM91.4106 29.51C91.2106 29.23 91.1206 28.87 91.1406 28.43C91.1606 27.99 91.4206 27.61 91.9206 27.29C92.2406 27.09 92.5806 27.01 92.9406 27.05C93.3006 27.07 93.6506 27.25 93.9906 27.59C94.5706 28.17 95.1806 28.62 95.8206 28.94C96.4606 29.26 97.2606 29.42 98.2206 29.42C98.5206 29.4 98.8506 29.36 99.2106 29.3C99.5706 29.22 99.8806 29.06 100.141 28.82C100.421 28.56 100.561 28.17 100.561 27.65C100.561 27.21 100.411 26.86 100.111 26.6C99.8106 26.34 99.4106 26.12 98.9106 25.94C98.4306 25.76 97.8906 25.59 97.2906 25.43C96.6706 25.25 96.0306 25.05 95.3706 24.83C94.7306 24.61 94.1406 24.33 93.6006 23.99C93.0606 23.63 92.6206 23.16 92.2806 22.58C91.9406 22 91.7706 21.27 91.7706 20.39C91.7706 19.39 92.0506 18.54 92.6106 17.84C93.1706 17.14 93.8906 16.6 94.7706 16.22C95.6706 15.84 96.6106 15.65 97.5906 15.65C98.2106 15.65 98.8606 15.73 99.5406 15.89C100.221 16.03 100.871 16.27 101.491 16.61C102.111 16.93 102.631 17.36 103.051 17.9C103.271 18.2 103.401 18.56 103.441 18.98C103.481 19.4 103.291 19.78 102.871 20.12C102.571 20.36 102.221 20.47 101.821 20.45C101.421 20.41 101.091 20.27 100.831 20.03C100.491 19.59 100.031 19.24 99.4506 18.98C98.8906 18.72 98.2406 18.59 97.5006 18.59C97.2006 18.59 96.8706 18.63 96.5106 18.71C96.1706 18.77 95.8706 18.92 95.6106 19.16C95.3506 19.38 95.2206 19.74 95.2206 20.24C95.2206 20.7 95.3706 21.07 95.6706 21.35C95.9706 21.61 96.3706 21.83 96.8706 22.01C97.3906 22.17 97.9406 22.33 98.5206 22.49C99.1206 22.65 99.7306 22.84 100.351 23.06C100.971 23.28 101.541 23.57 102.061 23.93C102.581 24.29 103.001 24.76 103.321 25.34C103.641 25.9 103.801 26.62 103.801 27.5C103.801 28.52 103.501 29.39 102.901 30.11C102.301 30.83 101.551 31.38 100.651 31.76C99.7506 32.12 98.8306 32.3 97.8906 32.3C96.7106 32.3 95.5306 32.1 94.3506 31.7C93.1706 31.28 92.1906 30.55 91.4106 29.51ZM116.623 15.65C118.023 15.65 119.273 16.01 120.373 16.73C121.493 17.43 122.373 18.4 123.013 19.64C123.673 20.88 124.003 22.32 124.003 23.96C124.003 25.6 123.673 27.05 123.013 28.31C122.373 29.55 121.503 30.53 120.403 31.25C119.323 31.95 118.103 32.3 116.743 32.3C115.943 32.3 115.193 32.17 114.493 31.91C113.793 31.65 113.173 31.32 112.633 30.92C112.113 30.52 111.703 30.12 111.403 29.72C111.123 29.3 110.983 28.95 110.983 28.67L111.913 28.28V30.47C111.913 30.99 111.743 31.43 111.403 31.79C111.063 32.13 110.633 32.3 110.113 32.3C109.593 32.3 109.163 32.13 108.823 31.79C108.483 31.45 108.313 31.01 108.313 30.47V11.63C108.313 11.11 108.483 10.68 108.823 10.34C109.163 9.98 109.593 9.8 110.113 9.8C110.633 9.8 111.063 9.98 111.403 10.34C111.743 10.68 111.913 11.11 111.913 11.63V19.25L111.403 18.98C111.403 18.72 111.543 18.41 111.823 18.05C112.103 17.67 112.483 17.3 112.963 16.94C113.443 16.56 113.993 16.25 114.613 16.01C115.253 15.77 115.923 15.65 116.623 15.65ZM116.173 18.95C115.293 18.95 114.523 19.17 113.863 19.61C113.203 20.05 112.683 20.65 112.303 21.41C111.943 22.15 111.763 23 111.763 23.96C111.763 24.9 111.943 25.76 112.303 26.54C112.683 27.3 113.203 27.9 113.863 28.34C114.523 28.78 115.293 29 116.173 29C117.053 29 117.813 28.78 118.453 28.34C119.113 27.9 119.623 27.3 119.983 26.54C120.363 25.76 120.553 24.9 120.553 23.96C120.553 23 120.363 22.15 119.983 21.41C119.623 20.65 119.113 20.05 118.453 19.61C117.813 19.17 117.053 18.95 116.173 18.95ZM141.791 15.65C142.311 15.65 142.741 15.82 143.081 16.16C143.421 16.5 143.591 16.94 143.591 17.48V30.17C143.591 30.69 143.421 31.13 143.081 31.49C142.741 31.83 142.311 32 141.791 32C141.271 32 140.841 31.83 140.501 31.49C140.161 31.13 139.991 30.69 139.991 30.17V28.7L140.651 28.97C140.651 29.23 140.511 29.55 140.231 29.93C139.951 30.29 139.571 30.65 139.091 31.01C138.611 31.37 138.041 31.68 137.381 31.94C136.741 32.18 136.041 32.3 135.281 32.3C133.901 32.3 132.651 31.95 131.531 31.25C130.411 30.53 129.521 29.55 128.861 28.31C128.221 27.05 127.901 25.61 127.901 23.99C127.901 22.35 128.221 20.91 128.861 19.67C129.521 18.41 130.401 17.43 131.501 16.73C132.601 16.01 133.821 15.65 135.161 15.65C136.021 15.65 136.811 15.78 137.531 16.04C138.251 16.3 138.871 16.63 139.391 17.03C139.931 17.43 140.341 17.84 140.621 18.26C140.921 18.66 141.071 19 141.071 19.28L139.991 19.67V17.48C139.991 16.96 140.161 16.53 140.501 16.19C140.841 15.83 141.271 15.65 141.791 15.65ZM135.731 29C136.611 29 137.381 28.78 138.041 28.34C138.701 27.9 139.211 27.3 139.571 26.54C139.951 25.78 140.141 24.93 140.141 23.99C140.141 23.03 139.951 22.17 139.571 21.41C139.211 20.65 138.701 20.05 138.041 19.61C137.381 19.17 136.611 18.95 135.731 18.95C134.871 18.95 134.111 19.17 133.451 19.61C132.791 20.05 132.271 20.65 131.891 21.41C131.531 22.17 131.351 23.03 131.351 23.99C131.351 24.93 131.531 25.78 131.891 26.54C132.271 27.3 132.791 27.9 133.451 28.34C134.111 28.78 134.871 29 135.731 29ZM160.899 15.95C161.419 15.95 161.849 16.13 162.189 16.49C162.529 16.83 162.699 17.26 162.699 17.78V30.53C162.699 32.37 162.349 33.83 161.649 34.91C160.969 36.01 160.049 36.8 158.889 37.28C157.729 37.76 156.429 38 154.989 38C154.349 38 153.669 37.95 152.949 37.85C152.229 37.75 151.639 37.6 151.179 37.4C150.579 37.14 150.159 36.81 149.919 36.41C149.699 36.03 149.659 35.62 149.799 35.18C149.979 34.6 150.269 34.2 150.669 33.98C151.069 33.78 151.489 33.76 151.929 33.92C152.249 34.02 152.669 34.17 153.189 34.37C153.709 34.59 154.309 34.7 154.989 34.7C155.909 34.7 156.669 34.57 157.269 34.31C157.889 34.07 158.349 33.65 158.649 33.05C158.969 32.47 159.129 31.67 159.129 30.65V28.64L159.759 29.36C159.419 30.02 158.989 30.57 158.469 31.01C157.969 31.43 157.369 31.75 156.669 31.97C155.969 32.19 155.169 32.3 154.269 32.3C153.209 32.3 152.279 32.06 151.479 31.58C150.699 31.08 150.089 30.4 149.649 29.54C149.209 28.66 148.989 27.66 148.989 26.54V17.78C148.989 17.26 149.159 16.83 149.499 16.49C149.839 16.13 150.269 15.95 150.789 15.95C151.309 15.95 151.739 16.13 152.079 16.49C152.419 16.83 152.589 17.26 152.589 17.78V25.46C152.589 26.76 152.869 27.68 153.429 28.22C154.009 28.74 154.809 29 155.829 29C156.529 29 157.119 28.87 157.599 28.61C158.079 28.33 158.449 27.93 158.709 27.41C158.969 26.87 159.099 26.22 159.099 25.46V17.78C159.099 17.26 159.269 16.83 159.609 16.49C159.949 16.13 160.379 15.95 160.899 15.95ZM170.826 22.52C170.826 22 170.996 21.57 171.336 21.23C171.676 20.87 172.106 20.69 172.626 20.69C173.446 20.69 174.186 20.57 174.846 20.33C175.506 20.07 176.026 19.66 176.406 19.1C176.806 18.54 177.006 17.8 177.006 16.88C177.006 16.2 176.836 15.6 176.496 15.08C176.176 14.56 175.726 14.15 175.146 13.85C174.586 13.55 173.946 13.4 173.226 13.4C172.666 13.4 172.136 13.5 171.636 13.7C171.156 13.9 170.716 14.17 170.316 14.51C169.996 14.79 169.606 15 169.146 15.14C168.706 15.26 168.256 15.15 167.796 14.81C167.316 14.45 167.056 14.02 167.016 13.52C166.976 13.02 167.166 12.56 167.586 12.14C168.306 11.4 169.146 10.83 170.106 10.43C171.086 10.01 172.126 9.8 173.226 9.8C174.606 9.8 175.846 10.12 176.946 10.76C178.066 11.38 178.956 12.22 179.616 13.28C180.276 14.34 180.606 15.54 180.606 16.88C180.606 17.88 180.456 18.77 180.156 19.55C179.856 20.31 179.426 20.97 178.866 21.53C178.326 22.07 177.686 22.51 176.946 22.85C176.226 23.17 175.436 23.4 174.576 23.54C174.536 23.56 174.496 23.58 174.456 23.6C174.436 23.62 174.426 23.65 174.426 23.69V24.8C174.426 25.32 174.256 25.76 173.916 26.12C173.576 26.46 173.146 26.63 172.626 26.63C172.106 26.63 171.676 26.46 171.336 26.12C170.996 25.76 170.826 25.32 170.826 24.8V22.52ZM172.476 32C171.896 32 171.446 31.85 171.126 31.55C170.826 31.23 170.676 30.78 170.676 30.2V29.69C170.676 29.11 170.826 28.67 171.126 28.37C171.446 28.05 171.896 27.89 172.476 27.89H172.866C173.446 27.89 173.886 28.05 174.186 28.37C174.506 28.67 174.666 29.11 174.666 29.69V30.2C174.666 30.78 174.506 31.23 174.186 31.55C173.886 31.85 173.446 32 172.866 32H172.476Z" fill="black"/>
<defs>
<filter id="filter0_d_6_7" x="0.956909" y="0" width="35.8466" height="48.7927" filterUnits="userSpaceOnUse" color-interpolation-filters="sRGB">
<feFlood flood-opacity="0" result="BackgroundImageFix"/>
<feColorMatrix in="SourceAlpha" type="matrix" values="0 0 0 0 0 0 0 0 0 0 0 0 0 0 0 0 0 0 127 0" result="hardAlpha"/>
<feOffset dy="4"/>
<feGaussianBlur stdDeviation="2"/>
<feComposite in2="hardAlpha" operator="out"/>
<feColorMatrix type="matrix" values="0 0 0 0 0 0 0 0 0 0 0 0 0 0 0 0 0 0 0.25 0"/>
<feBlend mode="normal" in2="BackgroundImageFix" result="effect1_dropShadow_6_7"/>
<feBlend mode="normal" in="SourceGraphic" in2="effect1_dropShadow_6_7" result="shape"/>
</filter>
<filter id="filter1_d_6_7" x="22.6474" y="5.26028" width="31.9196" height="43.5214" filterUnits="userSpaceOnUse" color-interpolation-filters="sRGB">
<feFlood flood-opacity="0" result="BackgroundImageFix"/>
<feColorMatrix in="SourceAlpha" type="matrix" values="0 0 0 0 0 0 0 0 0 0 0 0 0 0 0 0 0 0 127 0" result="hardAlpha"/>
<feOffset dy="4"/>
<feGaussianBlur stdDeviation="2"/>
<feComposite in2="hardAlpha" operator="out"/>
<feColorMatrix type="matrix" values="0 0 0 0 0 0 0 0 0 0 0 0 0 0 0 0 0 0 0.25 0"/>
<feBlend mode="normal" in2="BackgroundImageFix" result="effect1_dropShadow_6_7"/>
<feBlend mode="normal" in="SourceGraphic" in2="effect1_dropShadow_6_7" result="shape"/>
</filter>
</defs>
</svg>
